<svg preserveAspectRatio="none" width="100%" height="100%" overflow="visible" style="display: block;" viewBox="0 0 104.156 90.8077" fill="none" xmlns="http://www.w3.org/2000/svg">
<g id="Frame 96">
<path id="Vector 3" d="M27.0781 33.4045L52.0781 56.4045L79.437 32.4045L74.0781 12.4045H32.0781L27.0781 33.4045Z" fill="var(--fill-0, #6E643B)"/>
<g id="Vector" filter="url(#filter0_d_0_58)">
<path fill-rule="evenodd" clip-rule="evenodd" d="M52.1502 37.2376C61.0372 37.2376 68.4218 35.7348 70.268 33.717C68.7224 31.9996 63.184 30.6688 56.1 30.3252V34.5756C54.855 34.6616 53.524 34.6616 52.1502 34.6616C50.7762 34.6616 49.4882 34.6186 48.2002 34.5328V30.3252C41.1162 30.7116 35.5779 32.0426 34.0323 33.717C35.8355 35.7348 43.263 37.2376 52.1502 37.2376ZM67.9066 17.2736V23.1125H56.057V27.1482C64.386 27.5775 70.6114 29.3378 70.6544 31.4844V35.9066C70.6114 38.0532 64.386 39.8134 56.057 40.2428V50.1604H48.2002V40.2858C39.8712 39.8564 33.6459 38.0962 33.603 35.9496V31.4844C33.6459 29.3378 39.8712 27.5775 48.2002 27.1482V23.1125H36.3508V17.2736H67.9066ZM31.7139 8H73.2732C74.2608 8 75.1624 8.5152 75.6776 9.37386L87.7846 30.1536C88.4286 31.2268 88.214 32.6008 87.3124 33.4594L53.9962 66.0028C52.923 67.076 51.1626 67.076 50.0894 66.0028L16.8161 33.5024C15.9145 32.6008 15.7428 31.2268 16.3868 30.1106L29.3526 9.288C29.8678 8.5152 30.7694 8 31.7139 8Z" fill="url(#paint0_linear_0_58)"/>
<path d="M31.7139 9H73.2734C73.8644 9.00008 74.4099 9.28664 74.7539 9.78613L74.8203 9.88867L86.9209 30.6572L86.9268 30.668C87.3203 31.3238 87.1994 32.1864 86.623 32.7354L86.6133 32.7441L53.2979 65.2871L53.2891 65.2959C52.6065 65.9784 51.4795 65.9782 50.7969 65.2959L50.7881 65.2871L17.5225 32.7949H17.5234C16.9503 32.2217 16.8311 31.3482 17.249 30.6172L30.1846 9.84277C30.5257 9.33103 31.1238 9.00002 31.7139 9ZM57.0996 31.3838C60.1672 31.5797 62.8824 31.9642 65.0283 32.4785C66.2224 32.7647 67.2207 33.0862 67.9971 33.4268C68.2169 33.5232 68.4128 33.6194 68.5869 33.7129C68.2988 33.8671 67.9535 34.0275 67.5449 34.1865C66.526 34.5832 65.2131 34.9463 63.6562 35.2529C60.5446 35.8659 56.543 36.2373 52.1504 36.2373C47.7576 36.2373 43.7451 35.8659 40.6279 35.2529C39.0681 34.9462 37.7537 34.5829 36.7373 34.1865C36.3393 34.0313 36.0025 33.8765 35.7217 33.7266C35.8926 33.6369 36.0846 33.5457 36.2988 33.4531C37.0772 33.1166 38.0769 32.7973 39.2725 32.5107C41.4192 31.9963 44.1336 31.6038 47.2002 31.3906V35.4688L48.1338 35.5303C49.4445 35.6176 50.7549 35.6611 52.1504 35.6611C53.5164 35.6611 54.8832 35.6621 56.1689 35.5732L57.0996 35.5088V31.3838ZM71.6543 31.4648C71.6333 30.4182 70.8744 29.6512 70.0762 29.126C69.238 28.5746 68.0886 28.1065 66.7441 27.7129C64.2459 26.9815 60.8769 26.4524 57.0566 26.2051V24.1123H68.9062V16.2734H35.3506V24.1123H47.2002V26.2051C43.3802 26.4524 40.0117 26.9815 37.5137 27.7129C36.169 28.1066 35.0189 28.5744 34.1807 29.126C33.3825 29.6512 32.6245 30.4183 32.6035 31.4648L32.6025 31.4746V35.96L32.6035 35.9697C32.6245 37.0162 33.3826 37.7825 34.1807 38.3076C35.0189 38.8591 36.169 39.328 37.5137 39.7217C40.0117 40.453 43.3803 40.9812 47.2002 41.2285V51.1602H57.0566V41.1855C60.8769 40.9382 64.2459 40.4101 66.7441 39.6787C68.0887 39.285 69.2379 38.8161 70.0762 38.2646C70.8744 37.7395 71.6333 36.9733 71.6543 35.9268V31.4648Z" stroke="var(--stroke-0, black)" stroke-opacity="0.03" stroke-width="2"/>
</g>
<path id="Vector_2" d="M73.2734 6C74.9755 6.00008 76.5222 6.89417 77.3926 8.34473L77.3994 8.35547L77.4053 8.36719L89.5 29.125L89.6025 29.3047C90.6184 31.1813 90.1948 33.4765 88.6914 34.9082L55.3936 67.4336L55.3926 67.4326C53.5369 69.2702 50.5235 69.2657 48.6748 67.417V67.416L15.4189 34.9336L15.4023 34.917C13.8476 33.3623 13.5676 30.995 14.6543 29.1113L14.6709 29.082L14.6895 29.0537L27.6553 8.23047L27.6709 8.2041L27.6885 8.17871C28.5517 6.88385 30.0604 6.00002 31.7139 6H73.2734Z" stroke="var(--stroke-0, white)" stroke-width="4"/>
</g>
<defs>
<filter id="filter0_d_0_58" x="1.32663e-09" y="0" width="104.156" height="90.8077" filterUnits="userSpaceOnUse" color-interpolation-filters="sRGB">
<feFlood flood-opacity="0" result="BackgroundImageFix"/>
<feColorMatrix in="SourceAlpha" type="matrix" values="0 0 0 0 0 0 0 0 0 0 0 0 0 0 0 0 0 0 127 0" result="hardAlpha"/>
<feOffset dy="8"/>
<feGaussianBlur stdDeviation="8"/>
<feComposite in2="hardAlpha" operator="out"/>
<feColorMatrix type="matrix" values="0 0 0 0 0 0 0 0 0 0 0 0 0 0 0 0 0 0 0.09 0"/>
<feBlend mode="normal" in2="BackgroundImageFix" result="effect1_dropShadow_0_58"/>
<feBlend mode="normal" in="SourceGraphic" in2="effect1_dropShadow_0_58" result="shape"/>
</filter>
<linearGradient id="paint0_linear_0_58" x1="52.0782" y1="8" x2="52.0782" y2="66.8077" gradientUnits="userSpaceOnUse">
<stop stop-color="#FFEA98"/>
<stop offset="1" stop-color="#EBD891"/>
</linearGradient>
</defs>
</svg>
