<svg preserveAspectRatio="none" width="100%" height="100%" overflow="visible" style="display: block;" viewBox="0 0 16 10.4828" fill="none" xmlns="http://www.w3.org/2000/svg">
<g id="auric">
<path id="Subtract" d="M10.7588 0C13.6534 9.07072e-05 15.9999 2.34661 16 5.24121C16 8.13589 13.6534 10.4823 10.7588 10.4824H5.24121C2.34655 10.4823 0 8.13589 0 5.24121C9.09671e-05 2.34661 2.34661 9.09649e-05 5.24121 0H10.7588ZM5.79297 2.20703C4.11711 2.20708 2.75879 3.56534 2.75879 5.24121C2.75879 6.91708 4.11711 8.27534 5.79297 8.27539H10.207C11.8828 8.27529 13.2412 6.91705 13.2412 5.24121C13.2412 3.56537 11.8828 2.20713 10.207 2.20703H5.79297Z" fill="var(--fill-0, #E4DDD7)"/>
</g>
</svg>
