<svg preserveAspectRatio="none" width="100%" height="100%" overflow="visible" style="display: block;" viewBox="0 0 30 24" fill="none" xmlns="http://www.w3.org/2000/svg">
<g id="Group">
<path id="Vector" d="M26 0H4C1.79086 0 0 1.79086 0 4V20C0 22.2091 1.79086 24 4 24H26C28.2091 24 30 22.2091 30 20V4C30 1.79086 28.2091 0 26 0Z" fill="var(--fill-0, #459A45)"/>
<path id="Vector_2" opacity="0.15" d="M26 0H4C1.791 0 0 1.791 0 4V20C0 22.209 1.791 24 4 24H26C28.209 24 30 22.209 30 20V4C30 1.791 28.209 0 26 0ZM29 20C29 21.654 27.654 23 26 23H4C2.346 23 1 21.654 1 20V4C1 2.346 2.346 1 4 1H26C27.654 1 29 2.346 29 4V20Z" fill="var(--fill-0, black)"/>
<path id="Vector_3" d="M2.47168 12L14.9997 20L27.5277 12L14.9997 4L2.47168 12Z" fill="var(--fill-0, #FEDF00)"/>
<path id="Vector_4" d="M15 17C17.7614 17 20 14.7614 20 12C20 9.23858 17.7614 7 15 7C12.2386 7 10 9.23858 10 12C10 14.7614 12.2386 17 15 17Z" fill="var(--fill-0, #0A2172)"/>
<path id="Vector_5" d="M13 10.5C12.003 10.5 11.042 10.649 10.127 10.909C10.049 11.259 10.001 11.619 10 11.992C10.944 11.677 11.951 11.499 12.999 11.499C15.523 11.499 17.815 12.495 19.518 14.107C19.67 13.781 19.794 13.441 19.874 13.081C18.03 11.477 15.629 10.498 12.999 10.498L13 10.5Z" fill="var(--fill-0, white)"/>
<path id="Vector_6" opacity="0.2" d="M26 1H4C2.343 1 1 2.343 1 4V5C1 3.343 2.343 2 4 2H26C27.657 2 29 3.343 29 5V4C29 2.343 27.657 1 26 1Z" fill="var(--fill-0, white)"/>
</g>
</svg>
