<svg preserveAspectRatio="none" width="100%" height="100%" overflow="visible" style="display: block;" viewBox="0 0 30 24" fill="none" xmlns="http://www.w3.org/2000/svg">
<g id="Group">
<path id="Vector" d="M9 0H21V24H9V0Z" fill="var(--fill-0, white)"/>
<path id="Vector_2" d="M4 0H10V24H4C1.792 24 0 22.208 0 20V4C0 1.792 1.792 0 4 0Z" fill="var(--fill-0, #2C6748)"/>
<path id="Vector_3" d="M26 24H20L20 0H26C28.208 0 30 1.792 30 4L30 20C30 22.208 28.208 24 26 24Z" fill="var(--fill-0, #BE2A2C)"/>
<path id="Vector_4" opacity="0.15" d="M26 0H4C1.791 0 0 1.791 0 4V20C0 22.209 1.791 24 4 24H26C28.209 24 30 22.209 30 20V4C30 1.791 28.209 0 26 0ZM29 20C29 21.654 27.654 23 26 23H4C2.346 23 1 21.654 1 20V4C1 2.346 2.346 1 4 1H26C27.654 1 29 2.346 29 4V20Z" fill="var(--fill-0, black)"/>
<path id="Vector_5" opacity="0.2" d="M26 1H4C2.343 1 1 2.343 1 4V5C1 3.343 2.343 2 4 2H26C27.657 2 29 3.343 29 5V4C29 2.343 27.657 1 26 1Z" fill="var(--fill-0, white)"/>
<g id="Vector_6">
</g>
<g id="Vector_7">
</g>
<path id="Vector_8" d="M17.701 14.6108C17.239 13.9208 16.961 14.9298 16.486 14.8628C16.611 14.0528 15.708 14.3628 15.29 14.5508L15.455 14.3098C14.83 14.6008 14.087 13.5978 13.639 14.3378C13.544 14.1328 12.757 13.6488 12.438 14.0098C12.463 12.9928 10.715 13.0528 11.631 14.0908C12.261 14.2698 12.606 15.0548 13.546 14.6448C13.675 15.1748 14.571 15.2278 14.959 14.9418C14.907 15.1028 14.932 15.5638 14.918 15.6568C15.397 16.0408 15.403 15.4338 15.74 15.2428C16.229 14.9928 18.015 15.7448 17.7 14.6118L17.701 14.6108Z" fill="var(--fill-0, #3B8288)"/>
<path id="Vector_9" d="M13.624 13.2642C13.624 13.2642 13.628 13.2672 13.636 13.2712C13.629 13.2672 13.624 13.2642 13.624 13.2642Z" fill="var(--fill-0, #A27037)"/>
<path id="Vector_10" d="M17.215 9.01902C17.217 8.52202 13.595 7.46502 14.689 9.08702C14.431 9.12402 13.998 8.93702 13.977 8.73502C13.992 8.77502 13.867 8.98302 13.826 9.00202C13.82 8.90202 13.796 8.81002 13.796 8.81002V8.81402C13.671 8.50402 13.768 9.24702 13.547 9.18402C13.623 9.15502 13.553 8.82002 13.495 8.86402C13.532 8.88802 13.448 9.27402 13.374 9.29102C13.419 9.22602 13.332 8.96702 13.312 9.01902C13.375 9.28202 12.862 9.59002 12.936 9.72002C12.6 9.83902 12.455 10.666 13.056 10.477C12.8 10.343 12.921 10.008 13.228 10.043C13.214 10.04 13.271 10.064 13.255 10.075C13.334 10.446 13.74 10.003 13.9 9.94702C13.731 10.889 13.298 11.783 14.188 12.72C13.893 12.409 13.839 12.774 14.172 12.883C13.971 12.893 13.741 13.088 14.087 13.196C14.016 13.268 13.742 13.059 13.892 13.205C13.889 13.204 13.886 13.202 13.883 13.201C13.883 13.201 13.885 13.203 13.889 13.206C13.317 13.181 13.864 13.406 14.103 13.428C13.909 13.733 14.585 13.451 14.651 13.444C14.784 13.779 14.889 13.476 14.859 13.227C14.954 13.336 15.049 13.444 15.146 13.551C15.298 13.592 15.464 14.269 15.578 13.916C15.582 13.902 15.584 13.888 15.586 13.874C15.812 14.128 15.92 14.224 15.821 13.821C15.944 14.023 16.054 14.081 16.022 13.817C16.208 14.012 16.159 13.747 16.14 13.611C16.319 14.322 18.125 14.172 17.939 13.694C17.627 13.39 15.645 12.279 16.157 11.585C16.351 11.684 17.313 12.889 16.895 12.184C16.524 11.219 17.211 12.184 17.313 12.542C17.543 12.957 17.185 11.818 17.109 11.778C17.744 12.571 17.685 13.269 17.484 11.805C17.509 11.853 17.55 11.891 17.6 11.91C17.563 11.836 17.52 11.807 17.496 11.796C17.535 11.805 17.583 11.864 17.603 11.911C17.602 11.911 17.601 11.911 17.6 11.91C17.939 13.713 18.062 13.404 17.849 11.778C18.361 13.798 18.289 13.786 18.233 11.741C18.6 12.267 18.336 13.365 18.493 13.866C18.767 13.282 18.669 11.565 18.848 11.105C18.511 10.785 17.735 9.09302 17.217 9.02002L17.215 9.01902ZM14.326 13.258C14.326 13.258 14.326 13.257 14.326 13.256H14.328C14.328 13.256 14.327 13.257 14.326 13.258Z" fill="var(--fill-0, #A27037)"/>
<path id="Vector_11" d="M13.7149 12.5871C13.7939 11.9461 13.2159 12.0341 12.8009 12.0331C11.9899 11.3531 14.3239 10.7791 13.2329 10.0401H13.2369C13.2369 10.0401 13.2289 10.0381 13.2299 10.0381L13.2369 10.0401C13.2369 10.0401 13.2139 10.0171 13.2149 10.0171C13.1209 10.0321 12.9799 10.0361 12.9329 10.1531C12.9329 10.1531 12.9359 10.1551 12.9389 10.1581L12.8129 10.3061C12.8129 10.3121 13.0229 10.4531 13.0139 10.4631C13.0219 10.4611 13.0329 10.4721 13.0389 10.4761C13.1489 10.8231 12.4539 10.9621 12.3149 11.2781C11.8699 12.1921 12.6879 12.4891 13.3379 12.4951C12.4629 13.4411 12.5439 12.6331 11.9559 12.0791C12.0389 11.7251 12.1929 11.2781 11.7049 11.1311C11.7079 11.0521 11.5749 10.9701 11.5399 11.0901C11.5729 11.0561 11.4539 10.9541 11.4049 11.0211C11.2149 10.7781 10.9919 11.3901 11.3269 11.3281C11.3349 11.4031 11.4599 11.3681 11.4789 11.3511C11.4759 11.4461 11.6209 11.4361 11.6399 11.3761C11.9699 11.5671 11.4939 11.9241 11.6409 12.2231C11.8359 12.5831 12.1889 12.7281 12.1999 13.2011C12.4899 13.6751 13.6759 13.0481 13.7059 12.7141C13.7109 12.6751 13.7129 12.6331 13.7159 12.5911L13.7149 12.5871ZM13.4609 10.6361C13.4609 10.6361 13.4649 10.6401 13.4659 10.6411C13.4659 10.6411 13.4619 10.6381 13.4599 10.6361H13.4609Z" fill="var(--fill-0, #A9AC78)"/>
<path id="Vector_12" d="M12.7459 9.93617C12.7509 9.95717 12.2869 10.0612 12.3539 9.85517C12.4419 9.88317 12.8519 9.58417 12.6859 9.61817C12.2279 9.93117 12.3789 9.54517 12.5299 9.27917C12.5749 9.29417 12.5819 9.51517 12.5579 9.52917C12.6909 9.44017 12.6349 8.95617 12.4489 9.20817C12.2669 9.13517 11.7789 9.60917 12.0519 9.80317C11.9559 10.2222 12.2849 10.3992 12.6369 10.3102L12.6389 10.3042H12.6699C12.6179 10.2972 12.7469 9.96017 12.7459 9.93717V9.93617Z" fill="var(--fill-0, #A9AC78)"/>
</g>
</svg>
