<svg preserveAspectRatio="none" width="100%" height="100%" overflow="visible" style="display: block;" viewBox="0 0 30 24" fill="none" xmlns="http://www.w3.org/2000/svg">
<g id="Group">
<path id="Vector" d="M4 0H26C28.208 0 30 1.792 30 4V5H0V4C0 1.792 1.792 0 4 0Z" fill="var(--fill-0, #030A85)"/>
<path id="Vector_2" d="M26 24L4 24C1.792 24 0 22.208 0 20V19L30 19V20C30 22.208 28.208 24 26 24Z" fill="var(--fill-0, #030A85)"/>
<path id="Vector_3" d="M0 4H30V9H0V4Z" fill="var(--fill-0, white)"/>
<path id="Vector_4" d="M0 15H30V20H0V15Z" fill="var(--fill-0, white)"/>
<path id="Vector_5" d="M0 8H30V16H0V8Z" fill="var(--fill-0, #C93927)"/>
<path id="Vector_6" opacity="0.15" d="M26 0H4C1.791 0 0 1.791 0 4V20C0 22.209 1.791 24 4 24H26C28.209 24 30 22.209 30 20V4C30 1.791 28.209 0 26 0ZM29 20C29 21.654 27.654 23 26 23H4C2.346 23 1 21.654 1 20V4C1 2.346 2.346 1 4 1H26C27.654 1 29 2.346 29 4V20Z" fill="var(--fill-0, black)"/>
<path id="Vector_7" opacity="0.2" d="M26 1H4C2.343 1 1 2.343 1 4V5C1 3.343 2.343 2 4 2H26C27.657 2 29 3.343 29 5V4C29 2.343 27.657 1 26 1Z" fill="var(--fill-0, white)"/>
</g>
</svg>
