<svg preserveAspectRatio="none" width="100%" height="100%" overflow="visible" style="display: block;" viewBox="0 0 30 24" fill="none" xmlns="http://www.w3.org/2000/svg">
<g id="Group">
<path id="Vector" d="M0 7H30V17H0V7Z" fill="var(--fill-0, #091E79)"/>
<path id="Vector_2" d="M4 0H26C28.208 0 30 1.792 30 4V8H0V4C0 1.792 1.792 0 4 0Z" fill="var(--fill-0, #F7CF46)"/>
<path id="Vector_3" d="M26 24L4 24C1.792 24 0 22.208 0 20V16L30 16V20C30 22.208 28.208 24 26 24Z" fill="var(--fill-0, #BF2C30)"/>
<path id="Vector_4" opacity="0.15" d="M26 0H4C1.791 0 0 1.791 0 4V20C0 22.209 1.791 24 4 24H26C28.209 24 30 22.209 30 20V4C30 1.791 28.209 0 26 0ZM29 20C29 21.654 27.654 23 26 23H4C2.346 23 1 21.654 1 20V4C1 2.346 2.346 1 4 1H26C27.654 1 29 2.346 29 4V20Z" fill="var(--fill-0, black)"/>
<path id="Vector_5" opacity="0.2" d="M26 1H4C2.343 1 1 2.343 1 4V5C1 3.343 2.343 2 4 2H26C27.657 2 29 3.343 29 5V4C29 2.343 27.657 1 26 1Z" fill="var(--fill-0, white)"/>
<path id="Vector_6" d="M9.20714 13.7149L9.02214 13.0679L8.79214 13.7009L8.11914 13.6769L8.64914 14.0919L8.41914 14.7239L8.97714 14.3479L9.50814 14.7619L9.32214 14.1149L9.88014 13.7389L9.20714 13.7149Z" fill="var(--fill-0, white)"/>
<path id="Vector_7" d="M10.4631 12.039L10.5571 11.373L10.0891 11.857L9.48405 11.561L9.80005 12.156L9.33105 12.639L9.99405 12.523L10.3101 13.118L10.4041 12.451L11.0681 12.335L10.4631 12.039Z" fill="var(--fill-0, white)"/>
<path id="Vector_8" d="M12.1954 10.7949L12.4694 10.1799L11.8864 10.5169L11.3864 10.0659L11.5264 10.7249L10.9434 11.0609L11.6124 11.1319L11.7524 11.7899L12.0264 11.1749L12.6964 11.2449L12.1954 10.7949Z" fill="var(--fill-0, white)"/>
<path id="Vector_9" d="M14.0339 9.83179L13.7179 9.23779L13.6239 9.90379L12.9609 10.0208L13.5659 10.3158L13.4719 10.9828L13.9399 10.4988L14.5449 10.7938L14.2289 10.1988L14.6969 9.71479L14.0339 9.83179Z" fill="var(--fill-0, white)"/>
<path id="Vector_10" d="M21.3511 14.0919L21.8811 13.6769L21.2081 13.7009L20.9781 13.0679L20.7931 13.7149L20.1201 13.7389L20.6781 14.1149L20.4921 14.7619L21.0231 14.3479L21.5811 14.7239L21.3511 14.0919Z" fill="var(--fill-0, white)"/>
<path id="Vector_11" d="M20.0056 12.523L20.6686 12.639L20.1996 12.156L20.5156 11.561L19.9106 11.857L19.4426 11.373L19.5366 12.039L18.9316 12.335L19.5956 12.451L19.6896 13.118L20.0056 12.523Z" fill="var(--fill-0, white)"/>
<path id="Vector_12" d="M18.3877 11.1319L19.0567 11.0609L18.4737 10.7249L18.6137 10.0659L18.1137 10.5169L17.5307 10.1799L17.8047 10.7949L17.3037 11.2449L17.9737 11.1749L18.2477 11.7899L18.3877 11.1319Z" fill="var(--fill-0, white)"/>
<path id="Vector_13" d="M16.3757 9.90379L16.2817 9.23779L15.9657 9.83179L15.3027 9.71479L15.7707 10.1988L15.4547 10.7938L16.0597 10.4988L16.5277 10.9828L16.4337 10.3158L17.0387 10.0208L16.3757 9.90379Z" fill="var(--fill-0, white)"/>
</g>
</svg>
