<svg preserveAspectRatio="none" width="100%" height="100%" overflow="visible" style="display: block;" viewBox="0 0 30 24" fill="none" xmlns="http://www.w3.org/2000/svg">
<g id="Group">
<path id="Vector" d="M0 7H30V17H0V7Z" fill="var(--fill-0, white)"/>
<path id="Vector_2" d="M4 0H26C28.208 0 30 1.792 30 4V8H0V4C0 1.792 1.792 0 4 0Z" fill="var(--fill-0, #55BBE0)"/>
<path id="Vector_3" d="M26 24L4 24C1.792 24 0 22.208 0 20V16L30 16V20C30 22.208 28.208 24 26 24Z" fill="var(--fill-0, #55BBE0)"/>
<path id="Vector_4" opacity="0.15" d="M26 0H4C1.791 0 0 1.791 0 4V20C0 22.209 1.791 24 4 24H26C28.209 24 30 22.209 30 20V4C30 1.791 28.209 0 26 0ZM29 20C29 21.654 27.654 23 26 23H4C2.346 23 1 21.654 1 20V4C1 2.346 2.346 1 4 1H26C27.654 1 29 2.346 29 4V20Z" fill="var(--fill-0, black)"/>
<path id="Vector_5" d="M8.27998 8.76807L7.97798 9.69707H7.00098L7.79098 10.2711L7.48998 11.2001L8.27998 10.6261L9.06998 11.2001L8.76798 10.2711L9.55798 9.69707H8.58098L8.27998 8.76807Z" fill="var(--fill-0, #55BBE0)"/>
<path id="Vector_6" d="M8.58098 13.7288L8.27998 12.7998L7.97798 13.7288H7.00098L7.79098 14.3028L7.48998 15.2318L8.27998 14.6578L9.06998 15.2318L8.76798 14.3028L9.55798 13.7288H8.58098Z" fill="var(--fill-0, #55BBE0)"/>
<path id="Vector_7" d="M15.3017 11.7132L14.9997 10.7842L14.6977 11.7132H13.7217L14.5117 12.2872L14.2097 13.2162L14.9997 12.6422L15.7897 13.2162L15.4877 12.2872L16.2777 11.7132H15.3017Z" fill="var(--fill-0, #55BBE0)"/>
<path id="Vector_8" d="M21.2324 10.2711L20.9304 11.2001L21.7204 10.6261L22.5104 11.2001L22.2094 10.2711L22.9994 9.69707H22.0224L21.7204 8.76807L21.4194 9.69707H20.4424L21.2324 10.2711Z" fill="var(--fill-0, #55BBE0)"/>
<path id="Vector_9" d="M22.0224 13.7288L21.7204 12.7998L21.4194 13.7288H20.4424L21.2324 14.3028L20.9304 15.2318L21.7204 14.6578L22.5104 15.2318L22.2094 14.3028L22.9994 13.7288H22.0224Z" fill="var(--fill-0, #55BBE0)"/>
<path id="Vector_10" opacity="0.2" d="M26 1H4C2.343 1 1 2.343 1 4V5C1 3.343 2.343 2 4 2H26C27.657 2 29 3.343 29 5V4C29 2.343 27.657 1 26 1Z" fill="var(--fill-0, white)"/>
</g>
</svg>
