<svg preserveAspectRatio="none" width="100%" height="100%" overflow="visible" style="display: block;" viewBox="0 0 30 24" fill="none" xmlns="http://www.w3.org/2000/svg">
<g id="Group">
<path id="Vector" d="M0 7H30V17H0V7Z" fill="var(--fill-0, white)"/>
<path id="Vector_2" d="M4 0H26C28.208 0 30 1.792 30 4V8H0V4C0 1.792 1.792 0 4 0Z" fill="var(--fill-0, #81ACDC)"/>
<path id="Vector_3" d="M26 24L4 24C1.792 24 0 22.208 0 20V16L30 16V20C30 22.208 28.208 24 26 24Z" fill="var(--fill-0, #81ACDC)"/>
<path id="Vector_4" opacity="0.15" d="M26 0H4C1.791 0 0 1.791 0 4V20C0 22.209 1.791 24 4 24H26C28.209 24 30 22.209 30 20V4C30 1.791 28.209 0 26 0ZM29 20C29 21.654 27.654 23 26 23H4C2.346 23 1 21.654 1 20V4C1 2.346 2.346 1 4 1H26C27.654 1 29 2.346 29 4V20Z" fill="var(--fill-0, black)"/>
<path id="Vector_5" d="M18.5114 11.9349C18.4914 11.9279 18.4704 11.9279 18.4704 11.9279L16.5324 11.8549C16.6174 11.8309 16.6974 11.8019 16.7754 11.7729C16.9544 11.7069 17.1224 11.6439 17.3314 11.6629C17.6534 11.6919 17.8714 11.5709 18.0314 11.4829C18.0884 11.4519 18.1374 11.4239 18.1794 11.4109C18.2674 11.3819 18.3344 11.4049 18.3824 11.4209C18.4194 11.4339 18.4644 11.4489 18.4854 11.4059C18.4914 11.3929 18.4984 11.3679 18.4734 11.3339C18.4274 11.2719 18.2944 11.2169 18.1104 11.2439C18.0264 11.2559 17.9624 11.2859 17.8944 11.3179C17.7674 11.3769 17.6244 11.4439 17.2864 11.4169C17.0204 11.3959 16.8574 11.4489 16.6994 11.5009C16.6084 11.5309 16.5214 11.5589 16.4174 11.5719L18.2314 10.7389C18.2314 10.7389 18.2514 10.7309 18.2674 10.7169C18.2934 10.6939 18.3024 10.6649 18.2904 10.6369C18.2834 10.6209 18.2714 10.6089 18.2564 10.6019C18.2224 10.5879 18.1814 10.6039 18.1774 10.6059L16.3584 11.2799C16.4274 11.2259 16.4904 11.1679 16.5514 11.1109C16.6914 10.9809 16.8224 10.8589 17.0224 10.7959C17.3304 10.6999 17.4864 10.5039 17.6004 10.3619C17.6414 10.3109 17.6764 10.2669 17.7094 10.2379C17.7794 10.1779 17.8504 10.1729 17.9014 10.1699C17.9404 10.1669 17.9884 10.1639 17.9914 10.1169C17.9914 10.1029 17.9884 10.0769 17.9534 10.0549C17.8874 10.0149 17.7434 10.0149 17.5844 10.1109C17.5114 10.1549 17.4634 10.2069 17.4134 10.2619C17.3194 10.3649 17.2124 10.4819 16.8894 10.5859C16.6354 10.6679 16.5054 10.7799 16.3794 10.8879C16.3074 10.9499 16.2374 11.0099 16.1464 11.0619L17.5034 9.59892C17.5354 9.56692 17.5534 9.51692 17.5194 9.48192C17.5074 9.46992 17.4914 9.46292 17.4744 9.46292C17.4374 9.46292 17.4064 9.49392 17.4034 9.49692L15.9814 10.8159C16.0244 10.7389 16.0604 10.6619 16.0954 10.5859C16.1744 10.4129 16.2494 10.2489 16.4104 10.1149C16.6584 9.90792 16.7274 9.66792 16.7784 9.49292C16.7964 9.42992 16.8124 9.37592 16.8324 9.33692C16.8744 9.25392 16.9374 9.22292 16.9834 9.20092C17.0184 9.18392 17.0614 9.16292 17.0464 9.11792C17.0414 9.10492 17.0284 9.08192 16.9874 9.07592C16.9114 9.06392 16.7784 9.11992 16.6674 9.26892C16.6164 9.33792 16.5924 9.40392 16.5674 9.47392C16.5194 9.60492 16.4654 9.75392 16.2064 9.97392C16.0034 10.1469 15.9254 10.2999 15.8504 10.4479C15.8074 10.5329 15.7654 10.6149 15.7014 10.6979L16.3954 8.82692C16.4124 8.78492 16.4104 8.73192 16.3654 8.71292C16.3494 8.70592 16.3324 8.70592 16.3164 8.71292C16.2824 8.72692 16.2654 8.76792 16.2634 8.77092L15.4544 10.5339C15.4654 10.4469 15.4684 10.3619 15.4714 10.2779C15.4784 10.0879 15.4854 9.90792 15.5824 9.72192C15.7324 9.43592 15.7044 9.18792 15.6844 9.00592C15.6774 8.94092 15.6704 8.88592 15.6744 8.84092C15.6814 8.74892 15.7274 8.69592 15.7614 8.65692C15.7874 8.62792 15.8194 8.59192 15.7874 8.55592C15.7784 8.54592 15.7564 8.52992 15.7164 8.53892C15.6414 8.55692 15.5394 8.65892 15.4944 8.83992C15.4734 8.92292 15.4764 8.99292 15.4794 9.06692C15.4854 9.20692 15.4924 9.36492 15.3374 9.66692C15.2154 9.90392 15.2024 10.0759 15.1904 10.2409C15.1834 10.3359 15.1764 10.4279 15.1484 10.5289L15.0734 8.53492C15.0734 8.48992 15.0514 8.44092 15.0014 8.44092C14.9714 8.44092 14.9474 8.45992 14.9364 8.49292C14.9294 8.51292 14.9294 8.53192 14.9294 8.53392L14.8564 10.4719C14.8324 10.3869 14.8034 10.3069 14.7744 10.2289C14.7084 10.0499 14.6454 9.88192 14.6644 9.67292C14.6934 9.35092 14.5724 9.13292 14.4844 8.97292C14.4534 8.91592 14.4254 8.86692 14.4124 8.82492C14.3834 8.73692 14.4064 8.66992 14.4224 8.62192C14.4354 8.58492 14.4504 8.53992 14.4074 8.51892C14.3944 8.51292 14.3684 8.50592 14.3354 8.53092C14.2734 8.57692 14.2184 8.70992 14.2454 8.89392C14.2574 8.97792 14.2874 9.04192 14.3194 9.10992C14.3784 9.23692 14.4454 9.37992 14.4184 9.71792C14.3974 9.98392 14.4504 10.1469 14.5024 10.3049C14.5324 10.3959 14.5604 10.4829 14.5734 10.5869L13.7404 8.77292C13.7234 8.73092 13.6844 8.69492 13.6384 8.71392C13.6104 8.72592 13.5954 8.75192 13.5984 8.78692C13.5994 8.80792 13.6074 8.82692 13.6074 8.82692L14.2814 10.6449C14.2274 10.5759 14.1694 10.5129 14.1124 10.4519C13.9824 10.3119 13.8604 10.1809 13.7974 9.98092C13.7014 9.67292 13.5054 9.51692 13.3634 9.40292C13.3124 9.36192 13.2684 9.32692 13.2394 9.29392C13.1794 9.22392 13.1744 9.15292 13.1714 9.10192C13.1684 9.06292 13.1654 9.01492 13.1184 9.01192C13.1044 9.01192 13.0784 9.01492 13.0564 9.04992C13.0164 9.11592 13.0164 9.25992 13.1124 9.41892C13.1564 9.49192 13.2084 9.53992 13.2634 9.58992C13.3664 9.68392 13.4834 9.79092 13.5874 10.1139C13.6694 10.3679 13.7814 10.4979 13.8894 10.6239C13.9514 10.6959 14.0114 10.7659 14.0634 10.8579L12.6004 9.50092C12.5684 9.46892 12.5184 9.45092 12.4834 9.48592C12.4624 9.50692 12.4584 9.53792 12.4744 9.56892C12.4834 9.58792 12.4984 9.60192 12.4984 9.60192L13.8174 11.0239C13.7404 10.9809 13.6634 10.9449 13.5874 10.9099C13.4144 10.8309 13.2504 10.7559 13.1164 10.5949C12.9094 10.3469 12.6694 10.2779 12.4934 10.2269C12.4314 10.2089 12.3774 10.1929 12.3374 10.1729C12.2544 10.1309 12.2234 10.0679 12.2014 10.0219C12.1844 9.98692 12.1634 9.94392 12.1184 9.95992C12.1054 9.96492 12.0824 9.97792 12.0764 10.0189C12.0644 10.0949 12.1204 10.2279 12.2694 10.3389C12.3384 10.3899 12.4044 10.4139 12.4744 10.4389C12.6054 10.4869 12.7544 10.5409 12.9744 10.7999C13.1474 11.0029 13.3004 11.0809 13.4484 11.1559C13.5334 11.1989 13.6154 11.2409 13.6984 11.3049L11.8274 10.6109C11.7854 10.5939 11.7324 10.5959 11.7134 10.6409C11.7064 10.6569 11.7064 10.6739 11.7134 10.6899C11.7274 10.7239 11.7684 10.7409 11.7714 10.7429L13.5344 11.5519C13.4474 11.5409 13.3624 11.5379 13.2784 11.5349C13.0884 11.5279 12.9084 11.5209 12.7224 11.4239C12.4364 11.2739 12.1874 11.3019 12.0064 11.3229C11.9414 11.3299 11.8864 11.3369 11.8414 11.3329C11.7494 11.3259 11.6964 11.2789 11.6574 11.2459C11.6284 11.2199 11.5924 11.1889 11.5564 11.2199C11.5464 11.2289 11.5304 11.2509 11.5394 11.2909C11.5574 11.3659 11.6594 11.4679 11.8404 11.5129C11.9234 11.5339 11.9934 11.5309 12.0674 11.5279C12.2074 11.5219 12.3654 11.5149 12.6674 11.6699C12.9044 11.7919 13.0764 11.8049 13.2414 11.8169C13.3364 11.8239 13.4284 11.8309 13.5294 11.8589L11.5354 11.9339C11.4904 11.9339 11.4424 11.9559 11.4414 12.0059C11.4414 12.0229 11.4474 12.0389 11.4594 12.0509C11.4854 12.0769 11.5294 12.0779 11.5334 12.0779L13.4714 12.1509C13.3864 12.1739 13.3064 12.2039 13.2284 12.2329C13.0494 12.2989 12.8814 12.3619 12.6724 12.3429C12.3504 12.3139 12.1324 12.4349 11.9724 12.5229C11.9154 12.5539 11.8664 12.5819 11.8244 12.5949C11.7364 12.6239 11.6694 12.6009 11.6214 12.5849C11.5844 12.5719 11.5394 12.5569 11.5184 12.5999C11.5124 12.6129 11.5054 12.6379 11.5304 12.6719C11.5764 12.7339 11.7094 12.7889 11.8934 12.7619C11.9774 12.7499 12.0414 12.7199 12.1094 12.6879C12.2364 12.6289 12.3794 12.5619 12.7174 12.5889C12.9834 12.6099 13.1464 12.5569 13.3044 12.5049C13.3954 12.4749 13.4824 12.4469 13.5864 12.4339L11.7724 13.2669C11.7304 13.2839 11.6944 13.3229 11.7134 13.3689C11.7244 13.3949 11.7474 13.4089 11.7784 13.4089C11.7804 13.4089 11.7834 13.4089 11.7854 13.4089C11.8064 13.4079 11.8254 13.3999 11.8254 13.3999L13.6434 12.7259C13.5744 12.7799 13.5114 12.8379 13.4504 12.8949C13.3104 13.0249 13.1794 13.1469 12.9794 13.2099C12.6714 13.3059 12.5154 13.5019 12.4014 13.6439C12.3604 13.6949 12.3254 13.7389 12.2924 13.7679C12.2224 13.8279 12.1514 13.8329 12.1004 13.8359C12.0614 13.8379 12.0134 13.8419 12.0104 13.8889C12.0104 13.9029 12.0134 13.9289 12.0484 13.9509C12.1144 13.9909 12.2584 13.9909 12.4174 13.8949C12.4904 13.8509 12.5384 13.7989 12.5884 13.7439C12.6824 13.6409 12.7894 13.5239 13.1124 13.4199C13.3664 13.3379 13.4964 13.2259 13.6224 13.1179C13.6944 13.0559 13.7644 12.9959 13.8554 12.9439L12.4984 14.4069C12.4664 14.4389 12.4484 14.4889 12.4834 14.5239C12.4954 14.5369 12.5114 14.5429 12.5284 14.5429C12.5404 14.5429 12.5534 14.5399 12.5664 14.5329C12.5854 14.5239 12.5994 14.5089 12.5994 14.5089L14.0214 13.1899C13.9784 13.2669 13.9424 13.3439 13.9074 13.4199C13.8284 13.5929 13.7534 13.7569 13.5924 13.8909C13.3444 14.0979 13.2754 14.3379 13.2244 14.5139C13.2064 14.5769 13.1904 14.6299 13.1704 14.6699C13.1284 14.7529 13.0654 14.7839 13.0194 14.8069C12.9844 14.8239 12.9414 14.8449 12.9574 14.8899C12.9624 14.9029 12.9754 14.9259 13.0164 14.9319C13.0924 14.9439 13.2254 14.8879 13.3364 14.7389C13.3874 14.6709 13.4114 14.6039 13.4364 14.5339C13.4844 14.4029 13.5384 14.2539 13.7974 14.0339C14.0004 13.8609 14.0784 13.7079 14.1534 13.5599C14.1964 13.4749 14.2384 13.3929 14.3024 13.3099L13.6084 15.1809C13.5914 15.2229 13.5934 15.2759 13.6384 15.2949C13.6464 15.2979 13.6554 15.2999 13.6634 15.2999C13.6714 15.2999 13.6794 15.2979 13.6874 15.2949C13.7214 15.2809 13.7384 15.2399 13.7404 15.2369L14.5494 13.4739C14.5384 13.5609 14.5354 13.6459 14.5324 13.7299C14.5254 13.9199 14.5184 14.0999 14.4214 14.2859C14.2714 14.5719 14.2994 14.8209 14.3204 15.0019C14.3274 15.0669 14.3344 15.1219 14.3304 15.1669C14.3234 15.2589 14.2764 15.3119 14.2434 15.3509C14.2174 15.3799 14.1864 15.4159 14.2174 15.4519C14.2264 15.4619 14.2484 15.4779 14.2884 15.4679C14.3634 15.4499 14.4654 15.3479 14.5104 15.1669C14.5314 15.0839 14.5284 15.0139 14.5254 14.9399C14.5194 14.7999 14.5124 14.6419 14.6674 14.3399C14.7894 14.1029 14.8024 13.9309 14.8144 13.7659C14.8214 13.6709 14.8284 13.5789 14.8564 13.4779L14.9314 15.4719C14.9314 15.5169 14.9534 15.5659 15.0034 15.5659C15.0334 15.5659 15.0574 15.5469 15.0684 15.5139C15.0754 15.4939 15.0754 15.4749 15.0754 15.4729L15.1484 13.5349C15.1724 13.6199 15.2014 13.6999 15.2304 13.7779C15.2964 13.9569 15.3594 14.1249 15.3404 14.3339C15.3114 14.6559 15.4324 14.8739 15.5204 15.0339C15.5514 15.0909 15.5794 15.1399 15.5924 15.1819C15.6214 15.2699 15.5984 15.3369 15.5824 15.3849C15.5694 15.4219 15.5544 15.4669 15.5974 15.4879C15.6034 15.4909 15.6114 15.4939 15.6224 15.4939C15.6354 15.4939 15.6514 15.4899 15.6694 15.4769C15.7314 15.4309 15.7864 15.2979 15.7594 15.1139C15.7474 15.0299 15.7174 14.9659 15.6854 14.8979C15.6264 14.7709 15.5594 14.6279 15.5864 14.2899C15.6074 14.0239 15.5544 13.8609 15.5024 13.7029C15.4724 13.6119 15.4444 13.5249 15.4314 13.4209L16.2644 15.2349C16.2644 15.2349 16.2724 15.2549 16.2864 15.2709C16.3094 15.2969 16.3384 15.3059 16.3664 15.2939C16.3824 15.2869 16.3944 15.2749 16.4014 15.2599C16.4154 15.2259 16.3994 15.1849 16.3974 15.1809L15.7234 13.3629C15.7774 13.4319 15.8354 13.4949 15.8924 13.5559C16.0224 13.6959 16.1444 13.8269 16.2074 14.0269C16.3034 14.3349 16.4994 14.4909 16.6414 14.6049C16.6924 14.6459 16.7364 14.6809 16.7654 14.7139C16.8254 14.7839 16.8304 14.8549 16.8334 14.9059C16.8354 14.9449 16.8394 14.9929 16.8864 14.9959H16.8894C16.9034 14.9959 16.9284 14.9899 16.9484 14.9579C16.9884 14.8919 16.9884 14.7479 16.8924 14.5889C16.8484 14.5159 16.7964 14.4679 16.7414 14.4179C16.6384 14.3239 16.5214 14.2169 16.4174 13.8939C16.3354 13.6399 16.2234 13.5099 16.1154 13.3839C16.0534 13.3119 15.9934 13.2419 15.9424 13.1509L17.4054 14.5079C17.4374 14.5399 17.4874 14.5579 17.5224 14.5229C17.5434 14.5019 17.5474 14.4719 17.5314 14.4399C17.5224 14.4209 17.5074 14.4069 17.5074 14.4069L16.1884 12.9849C16.2654 13.0279 16.3424 13.0639 16.4184 13.0989C16.5914 13.1779 16.7554 13.2529 16.8894 13.4139C17.0964 13.6619 17.3364 13.7309 17.5114 13.7819C17.5744 13.7999 17.6274 13.8159 17.6674 13.8359C17.7504 13.8779 17.7814 13.9409 17.8044 13.9869C17.8194 14.0169 17.8364 14.0529 17.8694 14.0529C17.8754 14.0529 17.8814 14.0519 17.8874 14.0499C17.9004 14.0449 17.9234 14.0319 17.9294 13.9909C17.9414 13.9149 17.8854 13.7819 17.7364 13.6709C17.6684 13.6199 17.6014 13.5959 17.5314 13.5709C17.4004 13.5229 17.2514 13.4689 17.0314 13.2099C16.8584 13.0069 16.7054 12.9289 16.5574 12.8539C16.4724 12.8109 16.3904 12.7689 16.3074 12.7049L18.1784 13.3989C18.2204 13.4159 18.2734 13.4139 18.2924 13.3689C18.2994 13.3529 18.2994 13.3359 18.2924 13.3199C18.2784 13.2859 18.2374 13.2689 18.2344 13.2669L16.4714 12.4579C16.5584 12.4689 16.6434 12.4719 16.7274 12.4749C16.9174 12.4819 17.0974 12.4889 17.2834 12.5859C17.5694 12.7359 17.8184 12.7079 17.9994 12.6879C18.0644 12.6809 18.1194 12.6739 18.1644 12.6779C18.2574 12.6849 18.3094 12.7309 18.3484 12.7649C18.3684 12.7829 18.3924 12.8039 18.4174 12.8039C18.4284 12.8039 18.4384 12.7999 18.4494 12.7909C18.4594 12.7819 18.4754 12.7599 18.4654 12.7199C18.4474 12.6449 18.3454 12.5429 18.1644 12.4979C18.0814 12.4769 18.0114 12.4799 17.9374 12.4829C17.7974 12.4889 17.6394 12.4959 17.3374 12.3409C17.1004 12.2189 16.9284 12.2059 16.7634 12.1939C16.6684 12.1869 16.5764 12.1799 16.4754 12.1519L18.4694 12.0769C18.5144 12.0769 18.5624 12.0549 18.5624 12.0049C18.5624 11.9749 18.5434 11.9509 18.5104 11.9399L18.5114 11.9349Z" fill="var(--fill-0, #EDB840)"/>
<path id="Vector_6" opacity="0.2" d="M26 1H4C2.343 1 1 2.343 1 4V5C1 3.343 2.343 2 4 2H26C27.657 2 29 3.343 29 5V4C29 2.343 27.657 1 26 1Z" fill="var(--fill-0, white)"/>
</g>
</svg>
