<svg preserveAspectRatio="none" width="100%" height="100%" overflow="visible" style="display: block;" viewBox="0 0 30 24" fill="none" xmlns="http://www.w3.org/2000/svg">
<g id="Group">
<path id="Vector" d="M4 0H26C28.208 0 30 1.792 30 4V6H0V4C0 1.792 1.792 0 4 0Z" fill="var(--fill-0, #0C258B)"/>
<path id="Vector_2" d="M26 24L4 24C1.792 24 0 22.208 0 20V18L30 18V20C30 22.208 28.208 24 26 24Z" fill="var(--fill-0, #0C258B)"/>
<path id="Vector_3" d="M0 14H30V19H0V14Z" fill="var(--fill-0, white)"/>
<path id="Vector_4" d="M0 5H30V10H0V5Z" fill="var(--fill-0, white)"/>
<path id="Vector_5" d="M0 9.5H30V14.5H0V9.5Z" fill="var(--fill-0, #0C258B)"/>
<path id="Vector_6" d="M1.316 22.9472L15 12.0002L1.316 1.05322C0.513 1.78522 0 2.82922 0 4.00022V20.0002C0 21.1722 0.513 22.2162 1.316 22.9472Z" fill="var(--fill-0, #BC2B20)"/>
<path id="Vector_7" opacity="0.15" d="M26 0H4C1.791 0 0 1.791 0 4V20C0 22.209 1.791 24 4 24H26C28.209 24 30 22.209 30 20V4C30 1.791 28.209 0 26 0ZM29 20C29 21.654 27.654 23 26 23H4C2.346 23 1 21.654 1 20V4C1 2.346 2.346 1 4 1H26C27.654 1 29 2.346 29 4V20Z" fill="var(--fill-0, black)"/>
<path id="Vector_8" d="M7.01612 12.628L9.31812 10.956H6.47312L5.59412 8.25L4.71512 10.956H1.87012L4.17112 12.628L3.29212 15.333L5.59412 13.661L7.89512 15.333L7.01612 12.628Z" fill="var(--fill-0, white)"/>
<path id="Vector_9" opacity="0.2" d="M26 1H4C2.343 1 1 2.343 1 4V5C1 3.343 2.343 2 4 2H26C27.657 2 29 3.343 29 5V4C29 2.343 27.657 1 26 1Z" fill="var(--fill-0, white)"/>
</g>
</svg>
