<svg preserveAspectRatio="none" width="100%" height="100%" overflow="visible" style="display: block;" viewBox="0 0 30 24" fill="none" xmlns="http://www.w3.org/2000/svg">
<g id="Group">
<path id="Vector" d="M26 0H4C1.79086 0 0 1.79086 0 4V20C0 22.2091 1.79086 24 4 24H26C28.2091 24 30 22.2091 30 20V4C30 1.79086 28.2091 0 26 0Z" fill="var(--fill-0, white)"/>
<path id="Vector_2" d="M0 15H30V18H0V15Z" fill="var(--fill-0, #1334A3)"/>
<path id="Vector_3" d="M29.8586 21H0.140625C0.586625 22.722 2.13762 24 3.99962 24H25.9996C27.8616 24 29.4116 22.722 29.8586 21Z" fill="var(--fill-0, #1334A3)"/>
<path id="Vector_4" d="M14 9H30V12H14V9Z" fill="var(--fill-0, #1334A3)"/>
<path id="Vector_5" d="M29.859 3H14V6H30V4C30 3.653 29.942 3.321 29.859 3Z" fill="var(--fill-0, #1334A3)"/>
<path id="Vector_6" opacity="0.2" d="M26 1H4C2.343 1 1 2.343 1 4V5C1 3.343 2.343 2 4 2H26C27.657 2 29 3.343 29 5V4C29 2.343 27.657 1 26 1Z" fill="var(--fill-0, white)"/>
<path id="Vector_7" d="M4 0H15V15H0V4C0 1.792 1.792 0 4 0Z" fill="var(--fill-0, white)"/>
<path id="Vector_8" opacity="0.15" d="M26 0H4C1.791 0 0 1.791 0 4V20C0 22.209 1.791 24 4 24H26C28.209 24 30 22.209 30 20V4C30 1.791 28.209 0 26 0ZM29 20C29 21.654 27.654 23 26 23H4C2.346 23 1 21.654 1 20V4C1 2.346 2.346 1 4 1H26C27.654 1 29 2.346 29 4V20Z" fill="var(--fill-0, black)"/>
<path id="Vector_9" d="M11.069 8.51295C10.772 8.43395 10.422 8.34195 10.001 7.95495L12.5 7.50095L9.86998 7.02295C11.124 6.54395 10.81 5.65095 12.081 5.72595C10.945 5.03395 10.76 6.05295 9.58898 6.05395L11.035 3.96595L8.85198 5.47795C9.42398 4.22995 8.52598 3.85795 9.48398 3.00695C8.19198 3.32095 8.78098 4.17195 7.95398 5.00095L7.49998 2.50195L7.02398 5.12095C6.54398 3.93295 5.64298 4.16595 5.72498 2.92095C5.03298 4.05695 6.05198 4.24195 6.05298 5.41295L3.96498 3.96695L5.47398 6.14695C4.22698 5.57695 3.85598 6.47695 3.00598 5.51895C3.31998 6.81095 4.17098 6.22195 4.99998 7.04895L2.50098 7.50295L5.11398 7.97795C3.84398 8.45695 4.19698 9.35095 2.91998 9.27795C3.93398 9.96195 4.28598 8.96795 5.41198 8.94995L3.96598 11.038L6.14698 9.52795C5.56998 10.781 6.47598 11.144 5.51698 11.998C6.80898 11.684 6.21998 10.833 7.04698 10.004L7.50098 12.503L7.97698 9.88195C8.45598 11.148 9.34898 10.808 9.27598 12.084C9.96798 10.948 8.94898 10.763 8.94798 9.59195L11.036 11.038L9.52498 8.85595C10.761 9.41495 11.144 8.53195 11.995 9.48695C11.858 8.87395 11.481 8.56995 11.069 8.51495V8.51295Z" fill="var(--fill-0, #F6D44A)"/>
</g>
</svg>
