<svg preserveAspectRatio="none" width="100%" height="100%" overflow="visible" style="display: block;" viewBox="0 0 30 24" fill="none" xmlns="http://www.w3.org/2000/svg">
<g id="Group">
<path id="Vector" d="M9 0H21V24H9V0Z" fill="var(--fill-0, white)"/>
<path id="Vector_2" d="M4 0H10V24H4C1.792 24 0 22.208 0 20V4C0 1.792 1.792 0 4 0Z" fill="var(--fill-0, #5D97CC)"/>
<path id="Vector_3" d="M26 24H20L20 0H26C28.208 0 30 1.792 30 4L30 20C30 22.208 28.208 24 26 24Z" fill="var(--fill-0, #5D97CC)"/>
<path id="Vector_4" opacity="0.15" d="M26 0H4C1.791 0 0 1.791 0 4V20C0 22.209 1.791 24 4 24H26C28.209 24 30 22.209 30 20V4C30 1.791 28.209 0 26 0ZM29 20C29 21.654 27.654 23 26 23H4C2.346 23 1 21.654 1 20V4C1 2.346 2.346 1 4 1H26C27.654 1 29 2.346 29 4V20Z" fill="var(--fill-0, black)"/>
<path id="Vector_5" d="M15.3564 15.9468C15.3204 15.8888 15.2604 15.8528 15.2074 15.8238C14.8554 15.6358 14.5054 15.5528 14.1084 15.4878C14.0164 15.4718 13.9254 15.3848 13.8314 15.3398C13.6054 15.2298 13.3534 15.1878 13.1334 15.0758C13.1184 15.0688 13.0634 15.0358 13.0374 15.0038C12.9504 14.9008 12.7924 14.8688 12.6934 14.7728C12.3134 14.4078 11.9104 14.0708 11.7014 13.5868C11.4474 12.9978 11.1314 12.3898 11.1744 11.7198C11.2024 11.2958 11.1404 10.8678 11.2424 10.4648C11.3944 9.86679 11.5884 9.27479 11.9444 8.77979L11.8844 8.81779C11.5264 9.31279 11.3314 9.90479 11.1804 10.5038C11.0784 10.9068 11.1394 11.3358 11.1124 11.7588C11.0694 12.4288 11.3854 13.0368 11.6394 13.6278C11.8484 14.1098 12.2534 14.4458 12.6314 14.8138C12.7294 14.9078 12.8874 14.9388 12.9754 15.0448C13.0014 15.0738 13.0584 15.1098 13.0714 15.1168C13.2914 15.2288 13.5434 15.2718 13.7694 15.3788C13.8634 15.4258 13.9554 15.5108 14.0464 15.5268C14.4434 15.5918 14.7934 15.6768 15.1454 15.8628C15.2004 15.8918 15.2584 15.9278 15.2944 15.9858L15.3564 15.9468Z" fill="var(--fill-0, #528132)"/>
<path id="Vector_6" d="M15.2913 15.9869C15.2543 15.9289 15.1953 15.8929 15.1433 15.8649C14.7663 15.6659 14.3923 15.5859 14.0453 15.5289C13.9853 15.5189 13.9263 15.4799 13.8683 15.4419C13.8353 15.4199 13.8013 15.3979 13.7673 15.3809C13.6593 15.3299 13.5433 15.2929 13.4313 15.2559C13.3093 15.2169 13.1843 15.1759 13.0693 15.1179C13.0553 15.1099 12.9973 15.0749 12.9713 15.0449C12.9243 14.9879 12.8563 14.9529 12.7893 14.9179C12.7323 14.8879 12.6733 14.8579 12.6283 14.8139C12.5723 14.7599 12.5163 14.7059 12.4593 14.6519C12.1273 14.3369 11.8133 14.038 11.6353 13.627C11.6033 13.553 11.5713 13.4789 11.5383 13.4039C11.3083 12.8829 11.0703 12.3429 11.1073 11.7559C11.1173 11.6059 11.1163 11.4539 11.1143 11.3059C11.1123 11.0379 11.1093 10.7609 11.1763 10.4989C11.3143 9.95695 11.5053 9.33195 11.8813 8.81195L11.9423 8.77295L11.9473 8.77795C11.5723 9.29895 11.3823 9.92195 11.2453 10.4629C11.1793 10.7229 11.1823 10.9999 11.1843 11.2679C11.1853 11.4149 11.1873 11.5679 11.1773 11.7179C11.1393 12.3049 11.3783 12.8439 11.6083 13.3649C11.6403 13.4379 11.6723 13.5109 11.7043 13.5829C11.8843 13.9999 12.2023 14.301 12.5393 14.62C12.5913 14.669 12.6433 14.7179 12.6953 14.7679C12.7413 14.8119 12.8003 14.844 12.8583 14.874C12.9243 14.908 12.9923 14.943 13.0393 14.999C13.0643 15.03 13.1193 15.0629 13.1343 15.0689C13.2473 15.1269 13.3713 15.1669 13.4903 15.2059C13.6043 15.2429 13.7213 15.2809 13.8313 15.3339C13.8673 15.3509 13.9033 15.3749 13.9373 15.3969C13.9933 15.4339 14.0513 15.472 14.1073 15.481C14.5143 15.547 14.8573 15.6299 15.2073 15.8169C15.2613 15.8469 15.3213 15.8829 15.3573 15.9419L15.3593 15.9449L15.2913 15.9869ZM11.9303 8.79195L11.8863 8.81995C11.5123 9.33795 11.3213 9.96195 11.1833 10.5039C11.1173 10.7639 11.1203 11.0409 11.1223 11.3089C11.1233 11.4559 11.1253 11.6089 11.1153 11.7589C11.0783 12.3439 11.3153 12.8829 11.5453 13.4039C11.5783 13.4789 11.6103 13.553 11.6423 13.627C11.8203 14.037 12.1333 14.3349 12.4653 14.6489C12.5213 14.7029 12.5783 14.756 12.6333 14.811C12.6783 14.853 12.7363 14.8839 12.7933 14.9139C12.8603 14.9489 12.9293 14.9849 12.9773 15.0419C13.0023 15.0709 13.0593 15.105 13.0723 15.113C13.1863 15.171 13.3113 15.2119 13.4333 15.2509C13.5453 15.2869 13.6613 15.3239 13.7693 15.3759C13.8043 15.3929 13.8383 15.4159 13.8713 15.4379C13.9293 15.4759 13.9883 15.5139 14.0453 15.5239C14.3933 15.5809 14.7673 15.661 15.1463 15.86C15.1983 15.888 15.2573 15.9239 15.2943 15.9819L15.3503 15.9479C15.3143 15.8919 15.2563 15.8569 15.2043 15.8289C14.8553 15.6419 14.5133 15.5599 14.1073 15.4929C14.0493 15.4829 13.9903 15.445 13.9343 15.408C13.8993 15.385 13.8643 15.3619 13.8293 15.3449C13.7193 15.2919 13.6023 15.2539 13.4893 15.2169C13.3693 15.1779 13.2453 15.1379 13.1323 15.0799C13.1153 15.0729 13.0603 15.0389 13.0343 15.0079C12.9883 14.9529 12.9213 14.918 12.8553 14.884C12.7973 14.854 12.7373 14.8219 12.6903 14.7769C12.6383 14.7269 12.5863 14.6779 12.5343 14.6289C12.1973 14.3099 11.8783 14.0089 11.6973 13.5899C11.6663 13.5179 11.6343 13.4449 11.6013 13.3719C11.3713 12.8499 11.1323 12.3099 11.1693 11.7219C11.1793 11.5719 11.1783 11.4199 11.1763 11.2719C11.1743 11.0039 11.1713 10.7269 11.2383 10.4649C11.3733 9.92895 11.5623 9.31195 11.9293 8.79395L11.9303 8.79195Z" fill="var(--fill-0, #528132)"/>
<path id="Vector_7" d="M11.6465 15.0859C11.6465 15.0859 12.3775 14.8519 12.9715 15.0439C12.9515 15.2389 12.6625 15.3079 12.5215 15.3089C12.3875 15.3099 11.9045 15.2619 11.6465 15.0849V15.0859Z" fill="var(--fill-0, #528132)"/>
<path id="Vector_8" d="M11.0684 13.8789C11.0684 13.8789 11.8074 14.0859 12.1984 14.5729C12.0744 14.7249 11.7954 14.6239 11.6764 14.5469C11.5634 14.4739 11.1874 14.1689 11.0694 13.8789H11.0684Z" fill="var(--fill-0, #528132)"/>
<path id="Vector_9" d="M10.4278 13.1299C10.4278 13.1299 11.0928 13.1389 11.5008 13.4939C11.4178 13.6659 11.1628 13.6399 11.0488 13.5989C10.9408 13.5599 10.5718 13.3689 10.4268 13.1299H10.4278Z" fill="var(--fill-0, #528132)"/>
<path id="Vector_10" d="M10.4082 12.4121C10.4082 12.4121 10.9882 12.5431 11.2762 12.9321C11.1692 13.0681 10.9512 12.9991 10.8602 12.9411C10.7742 12.8861 10.4882 12.6501 10.4082 12.4121Z" fill="var(--fill-0, #528132)"/>
<path id="Vector_11" d="M10.1904 11.6738C10.1904 11.6738 10.7704 11.8048 11.0584 12.1938C10.9514 12.3298 10.7334 12.2608 10.6424 12.2028C10.5564 12.1478 10.2704 11.9118 10.1904 11.6738Z" fill="var(--fill-0, #528132)"/>
<path id="Vector_12" d="M10.4077 10.8599C10.4077 10.8599 10.9007 11.1919 11.0287 11.6589C10.8797 11.7479 10.7017 11.6039 10.6377 11.5169C10.5767 11.4349 10.3967 11.1109 10.4077 10.8599Z" fill="var(--fill-0, #528132)"/>
<path id="Vector_13" d="M10.7512 9.93994C10.7512 9.93994 11.0982 10.4229 11.0552 10.9049C10.8852 10.9359 10.7682 10.7399 10.7382 10.6359C10.7102 10.5379 10.6522 10.1709 10.7512 9.93994Z" fill="var(--fill-0, #528132)"/>
<path id="Vector_14" d="M10.9907 9.10107C10.9907 9.10107 11.2767 9.58107 11.1967 10.0281C11.0337 10.0431 10.9407 9.85007 10.9207 9.75107C10.9027 9.65707 10.8787 9.30907 10.9907 9.10107Z" fill="var(--fill-0, #528132)"/>
<path id="Vector_15" d="M11.5037 8.50195C11.5037 8.50195 11.6577 8.97395 11.4957 9.34495C11.3497 9.32595 11.3067 9.13995 11.3097 9.04995C11.3127 8.96495 11.3637 8.65995 11.5037 8.50195Z" fill="var(--fill-0, #528132)"/>
<path id="Vector_16" d="M12.1709 15.752C12.1709 15.752 12.8699 15.264 13.5579 15.357C13.5979 15.613 13.3139 15.775 13.1649 15.813C13.0239 15.849 12.4989 15.911 12.1709 15.751V15.752Z" fill="var(--fill-0, #528132)"/>
<path id="Vector_17" d="M13.2138 13.9551C13.2138 13.9551 13.8737 14.4941 13.9727 15.1821C13.7377 15.2901 13.5038 15.0621 13.4268 14.9291C13.3538 14.8031 13.1498 14.3151 13.2148 13.9561L13.2138 13.9551Z" fill="var(--fill-0, #528132)"/>
<path id="Vector_18" d="M12.4773 13.6948C12.4773 13.6948 13.0293 14.2058 13.0793 14.8158C12.8663 14.8988 12.6733 14.6848 12.6113 14.5628C12.5533 14.4478 12.4003 14.0078 12.4773 13.6948Z" fill="var(--fill-0, #528132)"/>
<path id="Vector_19" d="M11.9623 12.7402C11.9623 12.7402 12.2753 13.3802 12.1103 13.9372C11.8943 13.9372 11.7963 13.6822 11.7833 13.5542C11.7713 13.4332 11.7873 12.9912 11.9623 12.7402Z" fill="var(--fill-0, #528132)"/>
<path id="Vector_20" d="M11.678 11.9741C11.678 11.9741 11.917 12.5381 11.732 13.0021C11.537 12.9891 11.467 12.7661 11.464 12.6561C11.461 12.5521 11.505 12.1771 11.678 11.9741Z" fill="var(--fill-0, #528132)"/>
<path id="Vector_21" d="M11.7556 11.0518C11.7556 11.0518 11.7406 11.6648 11.3806 12.0108C11.2086 11.9188 11.2366 11.6858 11.2796 11.5848C11.3206 11.4888 11.5146 11.1648 11.7556 11.0528V11.0518Z" fill="var(--fill-0, #528132)"/>
<path id="Vector_22" d="M11.9856 10.2412C11.9856 10.2412 11.7476 10.8062 11.2856 10.9962C11.1596 10.8472 11.2706 10.6412 11.3476 10.5622C11.4206 10.4882 11.7196 10.2582 11.9856 10.2412Z" fill="var(--fill-0, #528132)"/>
<path id="Vector_23" d="M12.1322 9.56494C12.1322 9.56494 11.8802 10.0269 11.4812 10.1839C11.3922 10.0629 11.5042 9.89394 11.5752 9.82994C11.6422 9.76894 11.9122 9.57994 12.1322 9.56594V9.56494Z" fill="var(--fill-0, #528132)"/>
<path id="Vector_24" d="M12.6005 8.65381C12.6005 8.65381 12.2685 9.25281 11.7495 9.46081C11.6355 9.30581 11.7825 9.08681 11.8755 9.00281C11.9635 8.92281 12.3145 8.67581 12.5995 8.65481L12.6005 8.65381Z" fill="var(--fill-0, #528132)"/>
<path id="Vector_25" d="M14.6436 15.9468L14.7056 15.9848C14.7416 15.9268 14.7996 15.8908 14.8546 15.8618C15.2066 15.6758 15.5566 15.5908 15.9536 15.5258C16.0456 15.5098 16.1366 15.4248 16.2306 15.3778C16.4566 15.2698 16.7086 15.2278 16.9286 15.1158C16.9416 15.1088 16.9986 15.0728 17.0246 15.0438C17.1116 14.9388 17.2696 14.9068 17.3686 14.8128C17.7466 14.4448 18.1516 14.1088 18.3606 13.6268C18.6146 13.0348 18.9306 12.4278 18.8876 11.7578C18.8596 11.3338 18.9216 10.9058 18.8196 10.5028C18.6676 9.90481 18.4736 9.31281 18.1156 8.81681L18.0556 8.77881C18.4116 9.27381 18.6056 9.86581 18.7576 10.4638C18.8596 10.8668 18.7986 11.2958 18.8256 11.7188C18.8686 12.3888 18.5526 12.9968 18.2986 13.5858C18.0896 14.0698 17.6866 14.4058 17.3066 14.7718C17.2086 14.8678 17.0506 14.8998 16.9626 15.0028C16.9366 15.0338 16.8816 15.0678 16.8666 15.0748C16.6466 15.1868 16.3946 15.2298 16.1686 15.3388C16.0746 15.3838 15.9826 15.4708 15.8916 15.4868C15.4946 15.5518 15.1446 15.6348 14.7926 15.8228C14.7396 15.8518 14.6796 15.8878 14.6436 15.9458" fill="var(--fill-0, #528132)"/>
<path id="Vector_26" d="M18.3543 15.0859C18.3543 15.0859 17.6233 14.8519 17.0293 15.0439C17.0493 15.2389 17.3383 15.3079 17.4793 15.3089C17.6133 15.3099 18.0963 15.2619 18.3543 15.0849V15.0859Z" fill="var(--fill-0, #528132)"/>
<path id="Vector_27" d="M18.9318 13.8789C18.9318 13.8789 18.1928 14.0859 17.8018 14.5729C17.9258 14.7249 18.2048 14.6239 18.3238 14.5469C18.4368 14.4739 18.8138 14.1689 18.9318 13.8789Z" fill="var(--fill-0, #528132)"/>
<path id="Vector_28" d="M19.572 13.1299C19.572 13.1299 18.907 13.1389 18.499 13.4939C18.582 13.6659 18.837 13.6399 18.951 13.5989C19.059 13.5599 19.427 13.3689 19.572 13.1299Z" fill="var(--fill-0, #528132)"/>
<path id="Vector_29" d="M19.5916 12.4121C19.5916 12.4121 19.0116 12.5431 18.7236 12.9321C18.8306 13.0681 19.0486 12.9991 19.1396 12.9411C19.2256 12.8861 19.5116 12.6501 19.5916 12.4121Z" fill="var(--fill-0, #528132)"/>
<path id="Vector_30" d="M19.8104 11.6738C19.8104 11.6738 19.2304 11.8048 18.9424 12.1938C19.0494 12.3298 19.2674 12.2608 19.3584 12.2028C19.4444 12.1478 19.7304 11.9118 19.8104 11.6738Z" fill="var(--fill-0, #528132)"/>
<path id="Vector_31" d="M19.5917 10.8599C19.5917 10.8599 19.0987 11.1919 18.9707 11.6589C19.1197 11.7479 19.2977 11.6039 19.3617 11.5169C19.4227 11.4349 19.6027 11.1109 19.5917 10.8599Z" fill="var(--fill-0, #528132)"/>
<path id="Vector_32" d="M19.2491 9.93994C19.2491 9.93994 18.9021 10.4229 18.9451 10.9049C19.1151 10.9359 19.2321 10.7399 19.2621 10.6359C19.2901 10.5379 19.3471 10.1709 19.2481 9.93994H19.2491Z" fill="var(--fill-0, #528132)"/>
<path id="Vector_33" d="M19.0092 9.10107C19.0092 9.10107 18.7232 9.58107 18.8032 10.0281C18.9662 10.0431 19.0592 9.85007 19.0792 9.75107C19.0972 9.65707 19.1212 9.30907 19.0092 9.10107Z" fill="var(--fill-0, #528132)"/>
<path id="Vector_34" d="M18.4958 8.50195C18.4958 8.50195 18.3418 8.97395 18.5038 9.34495C18.6498 9.32595 18.6928 9.13995 18.6898 9.04995C18.6868 8.96495 18.6358 8.65995 18.4958 8.50195Z" fill="var(--fill-0, #528132)"/>
<path id="Vector_35" d="M17.8293 15.752C17.8293 15.752 17.1303 15.264 16.4423 15.357C16.4023 15.613 16.6863 15.775 16.8353 15.813C16.9763 15.849 17.5013 15.911 17.8293 15.751V15.752Z" fill="var(--fill-0, #528132)"/>
<path id="Vector_36" d="M16.7863 13.9551C16.7863 13.9551 16.1263 14.4941 16.0273 15.1821C16.2623 15.2901 16.4963 15.0621 16.5733 14.9291C16.6463 14.8031 16.8503 14.3151 16.7853 13.9561L16.7863 13.9551Z" fill="var(--fill-0, #528132)"/>
<path id="Vector_37" d="M17.5229 13.6948C17.5229 13.6948 16.9709 14.2058 16.9209 14.8158C17.1339 14.8988 17.3269 14.6848 17.3889 14.5628C17.4469 14.4478 17.5999 14.0078 17.5229 13.6948Z" fill="var(--fill-0, #528132)"/>
<path id="Vector_38" d="M18.0378 12.7402C18.0378 12.7402 17.7248 13.3802 17.8898 13.9372C18.1058 13.9372 18.2038 13.6822 18.2168 13.5542C18.2288 13.4332 18.2128 12.9912 18.0378 12.7402Z" fill="var(--fill-0, #528132)"/>
<path id="Vector_39" d="M18.3225 11.9741C18.3225 11.9741 18.0835 12.5381 18.2685 13.0021C18.4635 12.9891 18.5335 12.7661 18.5365 12.6561C18.5395 12.5521 18.4955 12.1771 18.3225 11.9741Z" fill="var(--fill-0, #528132)"/>
<path id="Vector_40" d="M18.2441 11.0518C18.2441 11.0518 18.2591 11.6648 18.6191 12.0108C18.7911 11.9188 18.7631 11.6858 18.7201 11.5848C18.6791 11.4888 18.4851 11.1648 18.2441 11.0528V11.0518Z" fill="var(--fill-0, #528132)"/>
<path id="Vector_41" d="M18.0137 10.2412C18.0137 10.2412 18.2517 10.8062 18.7137 10.9962C18.8397 10.8472 18.7287 10.6412 18.6517 10.5622C18.5787 10.4882 18.2797 10.2582 18.0137 10.2412Z" fill="var(--fill-0, #528132)"/>
<path id="Vector_42" d="M17.8682 9.56494C17.8682 9.56494 18.1202 10.0269 18.5192 10.1839C18.6082 10.0629 18.4962 9.89394 18.4252 9.82994C18.3582 9.76894 18.0882 9.57994 17.8682 9.56594V9.56494Z" fill="var(--fill-0, #528132)"/>
<path id="Vector_43" d="M17.3994 8.65381C17.3994 8.65381 17.7314 9.25281 18.2504 9.46081C18.3644 9.30581 18.2174 9.08681 18.1244 9.00281C18.0364 8.92281 17.6854 8.67581 17.4004 8.65481L17.3994 8.65381Z" fill="var(--fill-0, #528132)"/>
<path id="Vector_44" d="M14.6612 8.14379C14.6612 8.14379 14.7182 8.08679 14.7742 8.06879C14.7672 7.94079 14.8702 7.82879 15.0252 7.84479C15.1802 7.86079 15.2692 8.06579 15.1742 8.21279C15.1742 8.21279 15.8152 8.61479 16.3782 9.21779C16.9412 9.82079 17.6322 10.8328 17.4212 12.1688C17.2102 13.5048 15.7642 15.3598 15.4662 16.1568C15.4662 16.1568 15.6462 15.2178 16.2462 14.4118C16.2462 14.4118 15.2902 15.6498 14.5742 15.7428C15.7642 14.9708 16.7912 13.4748 17.0522 12.5268C17.0522 12.5268 16.7432 13.0818 16.5082 13.2538C16.5082 13.2538 16.9512 12.5768 17.0472 12.1228C17.0472 12.1228 16.7642 12.8128 16.4622 12.9678C16.8562 12.4738 17.2362 11.6198 17.0452 10.7168C16.8542 9.81379 16.2522 9.37279 15.9822 9.29979C15.7122 9.22679 15.1032 9.21279 14.8432 8.89179C14.5832 8.57079 14.8022 8.21479 14.8022 8.21479C14.8022 8.21479 14.8202 8.16879 14.7772 8.15779C14.7352 8.15779 14.7092 8.15179 14.6602 8.14379H14.6612Z" fill="var(--fill-0, #528132)"/>
<path id="Vector_45" d="M15.8971 9.20215C15.8971 9.20215 13.7131 9.23615 13.5391 9.25015C13.3651 9.26415 13.2441 9.50015 13.2651 9.66915C13.2861 9.83815 13.3311 9.97415 13.4951 10.3141C13.6591 10.6541 14.0631 11.4901 14.1301 11.9721C14.1301 11.9721 13.8301 11.9981 13.6711 12.0191C13.5121 12.0401 13.4121 12.2231 13.4561 12.4821C13.5001 12.7411 13.5891 12.8191 13.8111 12.8501C14.0331 12.8811 16.4181 12.6981 16.4181 12.6981C16.4181 12.6981 16.6881 12.5121 16.7231 12.1861C16.7581 11.8601 16.5921 11.2491 16.3971 10.8721C16.2021 10.4951 15.8091 9.84415 15.8091 9.84415C15.8091 9.84415 15.9431 9.81815 16.0141 9.69215C16.0851 9.56615 16.0731 9.37215 15.8991 9.20415L15.8971 9.20215Z" fill="var(--fill-0, #F8F1B3)"/>
<path id="Vector_46" opacity="0.2" d="M26 1H4C2.343 1 1 2.343 1 4V5C1 3.343 2.343 2 4 2H26C27.657 2 29 3.343 29 5V4C29 2.343 27.657 1 26 1Z" fill="var(--fill-0, white)"/>
</g>
</svg>
