<svg preserveAspectRatio="none" width="100%" height="100%" overflow="visible" style="display: block;" viewBox="0 0 30 24" fill="none" xmlns="http://www.w3.org/2000/svg">
<g id="Group">
<path id="Vector" d="M4 0C1.791 0 0 1.791 0 4V12H15V0H4Z" fill="var(--fill-0, #0D285F)"/>
<path id="Vector_2" d="M30 4C30 1.791 28.209 0 26 0H15V12H30V4Z" fill="var(--fill-0, #BE2A2C)"/>
<path id="Vector_3" d="M4 24C1.791 24 0 22.209 0 20V12H15V24H4Z" fill="var(--fill-0, #BE2A2C)"/>
<path id="Vector_4" d="M30 20C30 22.209 28.209 24 26 24H15V12H30V20Z" fill="var(--fill-0, #0D285F)"/>
<path id="Vector_5" d="M12 0H18V24H12V0Z" fill="var(--fill-0, white)"/>
<path id="Vector_6" d="M0 15L0 9L30 9V15L0 15Z" fill="var(--fill-0, white)"/>
<path id="Vector_7" opacity="0.15" d="M26 0H4C1.791 0 0 1.791 0 4V20C0 22.209 1.791 24 4 24H26C28.209 24 30 22.209 30 20V4C30 1.791 28.209 0 26 0ZM29 20C29 21.654 27.654 23 26 23H4C2.346 23 1 21.654 1 20V4C1 2.346 2.346 1 4 1H26C27.654 1 29 2.346 29 4V20Z" fill="var(--fill-0, black)"/>
<path id="Vector_8" d="M17.9867 10.1561C17.9267 10.0641 17.7407 9.96712 17.6337 9.92512L17.2067 9.76912C17.2457 9.69412 17.2777 9.63212 17.2387 9.57112C17.1797 9.48112 16.8227 9.30612 16.7327 9.28112C16.5787 9.23912 16.4227 9.20612 16.2647 9.18012C16.1127 9.15612 15.8197 9.13512 15.8197 9.13512C15.7987 9.11312 15.8597 8.99712 15.7657 8.91612C15.7107 8.87212 15.6307 8.85712 15.5487 8.84912C15.2227 8.81812 14.7777 8.82712 14.4487 8.84912C14.3537 8.85512 14.2867 8.86512 14.2317 8.91612C14.1657 8.97812 14.1567 9.01612 14.1627 9.13412C13.7227 9.12612 13.2787 9.22712 12.9087 9.45612C12.7387 9.56112 12.6987 9.59712 12.7927 9.76612C12.7707 9.78112 12.6157 9.82812 12.5777 9.84212C12.4367 9.89612 12.2927 9.94912 12.1727 10.0221C12.0997 10.0661 12.0687 10.0991 12.0127 10.1571L12.3657 10.1301C12.3547 10.1531 12.3287 10.1861 12.3147 10.2081C12.2547 10.2951 12.2167 10.3641 12.1647 10.4551C12.2647 10.3871 12.3547 10.3241 12.4697 10.2681C12.7217 10.1411 13.1757 10.1371 13.3617 9.91412C13.4097 9.85812 13.3807 9.82412 13.3407 9.73212C13.4787 9.68612 13.5307 9.65412 13.6977 9.61612C14.1027 9.52612 14.3807 9.63312 14.5767 9.58512C14.6377 9.57012 14.6977 9.53612 14.7017 9.47212L14.6727 9.26812H15.3297C15.3297 9.38312 15.2197 9.53112 15.4237 9.58412C15.6077 9.63212 15.9807 9.52712 16.3027 9.61612L16.6597 9.73112C16.6577 9.74812 16.6327 9.79312 16.6247 9.81712C16.6097 9.85812 16.6107 9.88012 16.6377 9.91012C16.6727 9.95012 16.7217 9.98912 16.7747 10.0201C16.8797 10.0801 17.0157 10.1181 17.1457 10.1491C17.5167 10.2391 17.5517 10.2631 17.8377 10.4531C17.8187 10.3971 17.6827 10.1991 17.6377 10.1291L17.9887 10.1571L17.9867 10.1561Z" fill="var(--fill-0, #002D62)"/>
<path id="Vector_9" d="M12.5076 13.19C12.5436 13.014 12.3066 12.883 11.9766 12.95C12.0136 13.083 12.2516 13.231 12.5076 13.19Z" fill="var(--fill-0, #00863D)"/>
<path id="Vector_10" d="M13.9537 13.7861L13.9557 13.7831C13.9527 13.7761 13.9527 13.7781 13.9537 13.7861Z" fill="var(--fill-0, #00863D)"/>
<path id="Vector_11" d="M16.043 13.7861L16.041 13.7831C16.044 13.7761 16.044 13.7781 16.043 13.7861Z" fill="var(--fill-0, #00863D)"/>
<path id="Vector_12" d="M17.8171 13.834L17.8561 13.642C17.8681 13.589 17.8971 13.511 17.9031 13.46C17.8181 13.55 17.7431 13.644 17.6681 13.728C17.6331 13.775 17.5931 13.814 17.5581 13.865C17.4831 13.98 17.4981 13.984 17.4691 14.021C17.2071 13.876 17.0901 14.23 16.9131 14.447C16.5851 14.263 16.2991 14.205 15.9141 14.134C15.8281 14.125 15.7501 14.113 15.6791 14.105C15.1941 14.048 14.6601 14.05 14.1771 14.123C13.9281 14.155 13.7731 14.2 13.5541 14.252C13.3761 14.311 13.2571 14.351 13.0871 14.451C13.0221 14.353 12.9331 14.209 12.8701 14.125C12.8351 14.08 12.7851 14.031 12.7241 14C12.6271 13.955 12.5921 13.969 12.5311 14.022L12.4881 13.94C12.4011 13.787 12.3111 13.717 12.2141 13.594L12.1271 13.492C12.1151 13.478 12.1111 13.469 12.0961 13.461C12.1331 13.584 12.1601 13.701 12.1851 13.834C12.1321 13.805 12.0831 13.775 12.0271 13.752C11.9861 13.736 11.8791 13.713 11.8281 13.719L11.8911 13.776C11.9991 13.872 12.0701 13.999 12.1141 14.141C12.1611 14.295 12.2721 14.46 12.3881 14.573C12.4121 14.596 12.4791 14.657 12.5221 14.673C12.6521 14.72 12.6461 14.671 12.6931 14.648C12.7931 14.817 12.8581 14.902 12.9731 15.031C13.0971 15.162 13.2921 15.197 13.4701 15.156C13.5491 15.136 13.5981 15.115 13.6591 15.08C13.8901 14.947 13.7791 14.844 13.7521 14.738C13.8271 14.715 14.1201 14.626 14.2261 14.606C14.5971 14.537 15.2861 14.528 15.7261 14.592C15.7651 14.598 16.2091 14.716 16.2531 14.741C16.2221 14.815 16.2091 14.851 16.2141 14.932C16.2221 15.007 16.2861 15.046 16.3431 15.079C16.4041 15.114 16.4531 15.136 16.5321 15.155C16.6091 15.173 16.6921 15.176 16.7701 15.165C16.9361 15.138 17.0221 15.042 17.0931 14.956C17.2111 14.821 17.2481 14.74 17.3081 14.645C17.3081 14.645 17.3421 14.676 17.3661 14.684C17.3891 14.691 17.4621 14.678 17.4821 14.67C17.5391 14.649 17.5751 14.606 17.6141 14.568C17.7361 14.451 17.8391 14.298 17.8881 14.132C17.9471 13.937 18.0281 13.845 18.1721 13.718C17.9861 13.724 17.9221 13.776 17.8171 13.834Z" fill="var(--fill-0, #CE1126)"/>
<path id="Vector_13" d="M13.5519 10.519C13.5559 10.545 13.5539 12.688 13.5539 12.91C13.5539 13.122 13.5559 13.257 13.6569 13.391C13.7399 13.507 13.8789 13.603 14.0149 13.635C14.1109 13.655 14.4649 13.647 14.5879 13.647C14.8609 13.634 14.8939 13.695 14.9979 13.83C15.1159 13.64 15.2449 13.637 15.4869 13.647C15.6099 13.647 15.8739 13.657 15.9829 13.633C16.1139 13.602 16.2159 13.539 16.2999 13.435C16.4389 13.276 16.4309 13.078 16.4309 12.87V10.61C16.4309 10.508 16.4189 10.533 16.4709 10.48L16.8109 10.123L13.1729 10.125L13.5499 10.52L13.5519 10.519Z" fill="var(--fill-0, white)"/>
<path id="Vector_14" d="M14.6876 11.5831V10.1221H13.1826L13.5566 10.5171L13.5606 11.5831H14.6886H14.6876Z" fill="var(--fill-0, #002D62)"/>
<path id="Vector_15" d="M15.2909 11.5831V10.1221H16.8239L16.4329 10.5411V11.5831H15.2909ZM14.6879 12.1861H13.5499L13.5469 13.1061C13.5989 13.5081 13.8959 13.6451 14.1619 13.6431C14.3419 13.6451 14.4039 13.6421 14.6879 13.6401V12.1851V12.1861Z" fill="var(--fill-0, #CE1126)"/>
<path id="Vector_16" d="M15.291 12.1861H16.436L16.432 13.1061C16.405 13.5041 16.083 13.6451 15.817 13.6431L15.291 13.6401V12.1851V12.1861Z" fill="var(--fill-0, #002D62)"/>
<path id="Vector_17" d="M14.9974 13.8529L14.9844 13.8329C14.9614 13.7969 14.9524 13.7829 14.9224 13.7539C14.8274 13.6589 14.7604 13.6589 14.6254 13.6599H14.5954C14.5724 13.6599 14.5414 13.6599 14.5054 13.6599C14.3434 13.6609 14.0994 13.6639 14.0194 13.6469C13.8394 13.6189 13.7224 13.5009 13.6554 13.4079C13.5474 13.2549 13.5474 13.1249 13.5474 12.9089V12.6889C13.5474 12.1169 13.5484 10.6149 13.5454 10.5229L13.1504 10.1089L16.8504 10.1069L16.4884 10.4869C16.4814 10.4939 16.4764 10.4989 16.4714 10.5039C16.4567 10.5186 16.4497 10.5379 16.4504 10.5619C16.4504 10.5739 16.4504 10.5879 16.4504 10.6069V12.8979C16.4504 13.0979 16.4504 13.2859 16.3164 13.4409C16.2334 13.5389 16.1114 13.6149 15.9924 13.6439C15.9034 13.6629 15.7174 13.6609 15.5824 13.6589C15.5484 13.6589 15.5174 13.6589 15.4924 13.6589C15.4734 13.6589 15.4524 13.6589 15.4304 13.6589C15.3424 13.6569 15.2434 13.6549 15.1794 13.6809C15.1144 13.7079 15.0584 13.7719 15.0074 13.8379L14.9954 13.8529H14.9974ZM14.6524 13.6329C14.7734 13.6329 14.8454 13.6389 14.9414 13.7349C14.9704 13.7629 14.9814 13.7779 14.9994 13.8059C15.0494 13.7419 15.1054 13.6819 15.1714 13.6549C15.2404 13.6269 15.3424 13.6289 15.4324 13.6309C15.4544 13.6309 15.4744 13.6309 15.4934 13.6309C15.5184 13.6309 15.5494 13.6309 15.5834 13.6309C15.7174 13.6329 15.9014 13.6349 15.9874 13.6169C16.1014 13.5899 16.2174 13.5169 16.2974 13.4229C16.4254 13.2759 16.4254 13.0919 16.4254 12.8969V10.6059C16.4254 10.5869 16.4254 10.5729 16.4254 10.5609C16.4244 10.5149 16.4254 10.5109 16.4544 10.4829C16.4594 10.4789 16.4644 10.4729 16.4704 10.4669L16.7894 10.1319L13.2144 10.1339L13.5724 10.5089V10.5139C13.5754 10.5299 13.5764 11.1799 13.5754 12.6879V12.9079C13.5754 13.1179 13.5754 13.2449 13.6784 13.3909C13.7424 13.4799 13.8544 13.5919 14.0254 13.6189C14.1024 13.6349 14.3554 13.6329 14.5064 13.6309C14.5424 13.6309 14.5734 13.6309 14.5964 13.6309H14.6264C14.6354 13.6309 14.6444 13.6309 14.6524 13.6309V13.6329Z" fill="var(--fill-0, black)"/>
<path id="Vector_18" d="M12.6615 10.647C12.8665 11.044 13.1535 11.065 12.7175 11.518C12.7295 11.583 12.9175 11.518 12.9175 11.518C12.8085 12.077 12.4525 12.018 13.2125 11.789C13.0885 11.877 13.1235 12.009 13.1235 12.009L13.2945 12.041C13.2945 12.041 13.3535 12.123 13.0535 12.135C12.6335 12.309 12.9125 12.715 13.1665 12.868C13.3495 13.042 12.9635 13.346 13.2125 13.441C14.2545 13.477 13.2825 14.755 12.9175 14.07C12.9175 14.07 13.0115 14.152 13.1495 14.058C13.3255 13.805 12.6765 13.986 12.5755 13.733C12.7175 13.758 12.8705 13.644 12.8705 13.644C12.5725 13.661 12.1775 13.126 11.9775 12.95C11.9775 12.95 12.2865 12.847 12.4905 12.965C12.4905 12.789 12.1945 12.66 12.1415 12.442C12.0885 12.224 12.3425 12.073 12.2445 11.981C12.1465 11.889 12.1485 11.171 12.6615 10.647Z" fill="var(--fill-0, #00863D)"/>
<path id="Vector_19" d="M17.3352 10.647C17.1302 11.044 16.8432 11.065 17.2792 11.518C17.2672 11.583 17.0792 11.518 17.0792 11.518C17.1882 12.077 17.5442 12.018 16.7842 11.789C16.9082 11.877 16.8732 12.009 16.8732 12.009L16.7022 12.041C16.7022 12.041 16.6432 12.123 16.9432 12.135C17.3632 12.309 17.0842 12.715 16.8302 12.868C16.6472 13.042 17.0332 13.346 16.7842 13.441C15.7422 13.477 16.7142 14.755 17.0792 14.07C17.0792 14.07 16.9852 14.152 16.8472 14.058C16.6712 13.805 17.3202 13.986 17.4212 13.733C17.2792 13.758 17.1262 13.644 17.1262 13.644C17.4242 13.661 17.8192 13.126 18.0192 12.95C18.0192 12.95 17.7102 12.847 17.5062 12.965C17.5062 12.789 17.8022 12.66 17.8552 12.442C17.9082 12.224 17.6542 12.073 17.7522 11.981C17.8502 11.889 17.8482 11.171 17.3352 10.647Z" fill="var(--fill-0, #00863D)"/>
<path id="Vector_20" opacity="0.2" d="M26 1H4C2.343 1 1 2.343 1 4V5C1 3.343 2.343 2 4 2H26C27.657 2 29 3.343 29 5V4C29 2.343 27.657 1 26 1Z" fill="var(--fill-0, white)"/>
</g>
</svg>
