<svg preserveAspectRatio="none" width="100%" height="100%" overflow="visible" style="display: block;" viewBox="0 0 16 16" fill="none" xmlns="http://www.w3.org/2000/svg">
<g id="Frame" clip-path="url(#clip0_0_228)">
<path id="Vector" d="M7.99696 0.888889C4.0696 0.888889 0.885851 4.07264 0.885851 8C0.885851 11.9274 4.0696 15.1111 7.99696 15.1111C11.9244 15.1111 15.1081 11.9274 15.1081 8C15.1081 4.07264 11.9244 0.888889 7.99696 0.888889Z" fill="var(--fill-0, #E4DDD7)" fill-opacity="0.4"/>
<path id="Vector_2" d="M12.5976 0.240069C12.8225 0.293155 13.0038 0.458889 13.0769 0.678084L13.6381 2.36186L15.322 2.92311C15.5412 2.99618 15.7068 3.17753 15.76 3.4024C15.8131 3.62727 15.746 3.86359 15.5825 4.02697L13.3603 6.24919C13.1818 6.42775 12.9177 6.4901 12.678 6.41025L11.069 5.87387L8.4714 8.4714C8.21106 8.73175 7.78894 8.73175 7.5286 8.4714C7.26825 8.21106 7.26825 7.78894 7.5286 7.5286L10.1261 4.93104L9.58978 3.32195C9.50996 3.08238 9.57227 2.81828 9.75084 2.63972L11.9731 0.417498C12.1364 0.254119 12.3728 0.186985 12.5976 0.240069Z" fill="var(--fill-0, #E4DDD7)"/>
<path id="Vector_3" fill-rule="evenodd" clip-rule="evenodd" d="M8.44961 4.19072C8.47035 4.55833 8.18916 4.87314 7.82155 4.89388C6.18688 4.98607 4.88889 6.34196 4.88889 8.00002C4.88889 9.71796 6.28198 11.1111 8 11.1111C9.65796 11.1111 11.0139 9.81324 11.1061 8.17865C11.1268 7.81104 11.4417 7.52986 11.8093 7.55061C12.1769 7.57136 12.458 7.88619 12.4373 8.2538C12.3054 10.5904 10.3692 12.4444 8 12.4444C5.54558 12.4444 3.55556 10.4543 3.55556 8.00002C3.55556 5.6307 5.40975 3.69445 7.74646 3.56266C8.11406 3.54192 8.42888 3.82311 8.44961 4.19072Z" fill="var(--fill-0, #E4DDD7)"/>
</g>
<defs>
<clipPath id="clip0_0_228">
<rect width="16" height="16" fill="white"/>
</clipPath>
</defs>
</svg>
