<svg preserveAspectRatio="none" width="100%" height="100%" overflow="visible" style="display: block;" viewBox="0 0 59.753 19.5574" fill="none" xmlns="http://www.w3.org/2000/svg">
<g id="Auric">
<path id="Vector" d="M53.7829 19.5574C49.737 19.5574 47.2067 16.7767 47.2067 12.3354V12.3222C47.2067 7.93367 49.7897 5.15293 53.7434 5.15293C57.3149 5.15293 59.4762 7.44606 59.7134 10.0555L59.7266 10.1477H57.0118L56.9854 10.0423C56.6823 8.68487 55.628 7.53831 53.7698 7.53831C51.5557 7.53831 50.1192 9.38335 50.1192 12.3486V12.3618C50.1192 15.3929 51.5821 17.1721 53.7829 17.1721C55.5357 17.1721 56.6559 16.1573 56.9986 14.6549L57.0118 14.5495H59.753L59.7398 14.6417C59.4367 17.4225 57.1172 19.5574 53.7829 19.5574Z" fill="var(--fill-0, #E4DDD7)"/>
<path id="Vector_2" d="M43.4639 3.28154C42.5414 3.28154 41.8033 2.54352 41.8033 1.64736C41.8033 0.738016 42.5414 0 43.4639 0C44.3996 0 45.1244 0.738016 45.1244 1.64736C45.1244 2.54352 44.3996 3.28154 43.4639 3.28154ZM42.0406 19.2807V5.41651H44.8872V19.2807H42.0406Z" fill="var(--fill-0, #E4DDD7)"/>
<path id="Vector_3" d="M33.0658 19.2807V5.41651H35.9124V7.78871H35.9783C36.4264 6.16771 37.5861 5.15293 39.1676 5.15293C39.5761 5.15293 39.932 5.21883 40.156 5.25837V7.90732C39.932 7.81506 39.4312 7.74917 38.8776 7.74917C37.0458 7.74917 35.9124 8.94845 35.9124 11.0175V19.2807H33.0658Z" fill="var(--fill-0, #E4DDD7)"/>
<path id="Vector_4" d="M23.0762 19.5574C20.0319 19.5574 18.2923 17.5938 18.2923 14.4045V5.41651H21.1389V13.851C21.1389 15.9464 22.1141 17.1062 24.091 17.1062C26.0941 17.1062 27.3857 15.6697 27.3857 13.5083V5.41651H30.2455V19.2807H27.3857V17.1984H27.3198C26.5949 18.5954 25.1848 19.5574 23.0762 19.5574Z" fill="var(--fill-0, #E4DDD7)"/>
<path id="Vector_5" d="M0 19.2807L6.9189 0.263577H10.1082L17.0139 19.2807H13.9169L12.1773 14.1409H4.84982L3.09703 19.2807H0ZM8.48719 3.41332L5.64055 11.7687H11.3734L8.5399 3.41332H8.48719Z" fill="var(--fill-0, #E4DDD7)"/>
</g>
</svg>
