<svg preserveAspectRatio="none" width="100%" height="100%" overflow="visible" style="display: block;" viewBox="0 0 16 16" fill="none" xmlns="http://www.w3.org/2000/svg">
<g id="Frame" clip-path="url(#clip0_0_155)">
<path id="Vector" fill-rule="evenodd" clip-rule="evenodd" d="M1.33333 4.22222C1.33333 2.87225 2.42728 1.77778 3.77778 1.77778H12.2222C13.5727 1.77778 14.6667 2.87225 14.6667 4.22222V11.7778C14.6667 13.1277 13.5727 14.2222 12.2222 14.2222H3.77778C2.42728 14.2222 1.33333 13.1277 1.33333 11.7778V4.22222Z" fill="var(--fill-0, #E4DDD7)"/>
<path id="Vector_2" fill-rule="evenodd" clip-rule="evenodd" d="M5.77778 0.666667C5.77778 0.298476 5.4793 -5.96046e-08 5.11111 -5.96046e-08C4.74292 -5.96046e-08 4.44444 0.298476 4.44444 0.666667V1.77778H3.77778C2.42737 1.77778 1.33333 2.87181 1.33333 4.22222V5.33333H14.6667V4.22222C14.6667 2.87181 13.5726 1.77778 12.2222 1.77778H11.5556V0.666667C11.5556 0.298476 11.2571 -5.96046e-08 10.8889 -5.96046e-08C10.5207 -5.96046e-08 10.2222 0.298476 10.2222 0.666667V1.77778H5.77778V0.666667Z" fill="var(--fill-0, #76706C)"/>
</g>
<defs>
<clipPath id="clip0_0_155">
<rect width="16" height="16" fill="white"/>
</clipPath>
</defs>
</svg>
