<svg preserveAspectRatio="none" width="100%" height="100%" overflow="visible" style="display: block;" viewBox="0 0 16 16" fill="none" xmlns="http://www.w3.org/2000/svg">
<g id="Frame">
<path id="Vector" fill-rule="evenodd" clip-rule="evenodd" d="M3.11111 5.77778C3.11111 3.07804 5.30026 0.888889 8 0.888889C10.6997 0.888889 12.8889 3.07804 12.8889 5.77778V9.55556C12.8889 10.1696 13.386 10.6667 14 10.6667C14.3682 10.6667 14.6667 10.9652 14.6667 11.3333C14.6667 11.7015 14.3682 12 14 12H2C1.63181 12 1.33333 11.7015 1.33333 11.3333C1.33333 10.9652 1.63181 10.6667 2 10.6667C2.61404 10.6667 3.11111 10.1696 3.11111 9.55556V5.77778Z" fill="var(--fill-0, #E4DDD7)"/>
<path id="Vector_2" d="M9.06667 13.3333H6.93421C6.79999 13.3333 6.67377 13.3938 6.58932 13.4978C6.50488 13.6018 6.47199 13.7387 6.49955 13.8693C6.65332 14.6 7.2711 15.1111 8.00088 15.1111C8.73066 15.1111 9.34844 14.6 9.50222 13.8693C9.52978 13.7387 9.49689 13.6018 9.41244 13.4978C9.328 13.3938 9.20089 13.3333 9.06667 13.3333Z" fill="var(--fill-0, #E4DDD7)" fill-opacity="0.6"/>
</g>
</svg>
